inDegrees=no
num_controls=7
num_derivatives=13
num_iterations=109
num_multipliers=7
num_parameters=0
num_slacks=7
num_states=26
objective=0.431232
objective_accelerations=0.050163
objective_balance=0.006860
objective_effort=0.031500
objective_height=0.341535
objective_ligament=0.001172
solver_duration=1399.510892
status=Solve_Succeeded
success=true
DataType=double
version=3
OpenSimVersion=4.5
endheader
time	/jointset/ground_pelvis/pelvis_tilt/value	/jointset/ground_pelvis/pelvis_tx/value	/jointset/ground_pelvis/pelvis_ty/value	/jointset/hip_l/hip_flexion_l/value	/jointset/hip_l/hip_adduction_l/value	/jointset/hip_l/hip_rotation_l/value	/jointset/back/lumbar_extension/value	/jointset/patellofemoral_l/patellar_flexion_l/value	/jointset/knee_l/knee_flexion_l/value	/jointset/knee_l/knee_adduction_l/value	/jointset/knee_l/knee_rotation_l/value	/jointset/ankle_l/ankle_angle_l/value	/jointset/subtalar_l/subtalar_angle_l/value	/jointset/ground_pelvis/pelvis_tilt/speed	/jointset/ground_pelvis/pelvis_tx/speed	/jointset/ground_pelvis/pelvis_ty/speed	/jointset/hip_l/hip_flexion_l/speed	/jointset/hip_l/hip_adduction_l/speed	/jointset/hip_l/hip_rotation_l/speed	/jointset/back/lumbar_extension/speed	/jointset/patellofemoral_l/patellar_flexion_l/speed	/jointset/knee_l/knee_flexion_l/speed	/jointset/knee_l/knee_adduction_l/speed	/jointset/knee_l/knee_rotation_l/speed	/jointset/ankle_l/ankle_angle_l/speed	/jointset/subtalar_l/subtalar_angle_l/speed	/forceset/tau_hip_flexion_l	/forceset/tau_hip_adduction_l	/forceset/tau_hip_rotation_l	/forceset/tau_knee_flexion_l	/forceset/tau_ankle_angle_l	/forceset/tau_subtalar_angle_l	/forceset/tau_lumbar_extension	lambda_cid13_p0	lambda_cid13_p1	lambda_cid13_p2	lambda_cid13_p3	lambda_cid13_p4	lambda_cid13_p5	lambda_cid14_p0	/jointset/ground_pelvis/pelvis_tilt/accel	/jointset/ground_pelvis/pelvis_tx/accel	/jointset/ground_pelvis/pelvis_ty/accel	/jointset/hip_l/hip_flexion_l/accel	/jointset/hip_l/hip_adduction_l/accel	/jointset/hip_l/hip_rotation_l/accel	/jointset/back/lumbar_extension/accel	/jointset/patellofemoral_l/patellar_flexion_l/accel	/jointset/knee_l/knee_flexion_l/accel	/jointset/knee_l/knee_adduction_l/accel	/jointset/knee_l/knee_rotation_l/accel	/jointset/ankle_l/ankle_angle_l/accel	/jointset/subtalar_l/subtalar_angle_l/accel	gamma_cid13_p0	gamma_cid13_p1	gamma_cid13_p2	gamma_cid13_p3	gamma_cid13_p4	gamma_cid13_p5	gamma_cid14_p0
1.5	-0.3394893263082196	-0.03217419182264146	0.7644572415965876	1.177443576104572	-0.3052621643718877	0.01131899213172125	-0.3396205619363188	0.8178909381723808	0.8178909381723715	-0.1739761270310123	0.1671252768754348	0.1613984626781518	-0.02027758202052629	0.4345611833078093	0.1579663606504711	0.5052065181673918	-2.10280231548411	-0.01342409254083754	-0.6927045817107448	0.5704852239703212	-2.086879886073429	-2.086879886073367	0.003765945761273573	-0.04433010693875354	-0.5410566382510147	-0.1036886286102739	-0.1947215764273221	0.03918014598391139	-0.02580512032357754	-0.2541879546848028	0.1025566466248628	0.02208689101851853	0.1928219251809317	-5.721631513950876	-10.52066751130397	3.479555222421367	-2.18503097139496	-606.9109617111909	-42.62996077889763	-20.42985484516703	0.5085001598489284	0.5440979915833184	-0.4125654402425855	-1.316723713652488	0.6716528076752033	-0.3590711658649442	1.600015222590746	-1.333922191128669	-1.333922191128653	0.05795879512685525	-0.09519442617170192	-0.5470932250432087	0.6925480708872913	4.105541295647284e-07	4.247732586933947e-07	-2.572909747056602e-06	-2.846695919253555e-07	4.959224166564404e-07	2.548597894340369e-07	4.007152067005698e-07
1.51	-0.3351184303906934	-0.03056746826893427	0.7694876555173863	1.156351819616759	-0.3053638920677266	0.004376993400377289	-0.3338369732043204	0.7969577398613449	0.7969577398613296	-0.1739394457660885	0.1666770259596089	0.1559609360120302	-0.02128124091742327	0.4395588083931382	0.1633584627401765	0.5007709138959164	-2.115249056870138	-0.006897693610755207	-0.6956141199386296	0.5861501492298752	-2.099453717099633	-2.099453717099625	0.003577822191769099	-0.04531093704197427	-0.5463530931708466	-0.097020968930962	-0.1885513174448957	0.03876982983726738	-0.02565190044000087	-0.2512777802872822	0.1039910835724333	0.02176390054226903	0.1876568472957357	-5.03971585254582	-10.62301763413354	3.636625834394148	-2.361738258831564	-602.5886545031129	-42.81102134391982	-21.70284272171951	0.4865543142377719	0.5337239911637892	-0.4747500998276056	-1.163607430984479	0.6470514258612101	-0.2443432793159946	1.537375197716784	-1.173292024635737	-1.173292024643825	-0.0560943125446931	-0.09761556875668108	-0.5065945816284279	0.6574351126315923	4.421881426825071e-07	5.138067891732319e-07	-2.687130097613792e-06	-2.922264616860435e-07	5.337099027167406e-07	3.449773773153e-07	4.244037453440993e-07
1.52	-0.3306993260960414	-0.0289074321596301	0.7744705749596247	1.135144604099104	-0.3053995721762272	-0.002591590338858645	-0.3278992064157106	0.775907967546793	0.7759079675467712	-0.1739044250127707	0.1662193490894789	0.1504733102054752	-0.02221751117829145	0.4442028587329831	0.1686288717698682	0.4957076224553378	-2.125894121452424	-0.0002145750732143514	-0.698021583289144	0.6013208352925913	-2.110194686776614	-2.11019468677666	0.003433843440040833	-0.04621529779957193	-0.5510764663376885	-0.09021090140451203	-0.1823810584624692	0.0383595136906234	-0.02549868055642381	-0.2483676058897617	0.1054255205200038	0.02144091006601957	0.1824917694105397	-4.362376268907646	-10.72739386900871	3.797250934536436	-2.558959998881277	-598.3574869184346	-43.08184281563582	-22.9703211864001	0.4377852107521334	0.5197593795806091	-0.5381028740632079	-0.9563883529039037	0.7029967291669073	-0.2586561903908337	1.501167383223154	-0.9673499212838879	-0.9673499212839123	0.06678775868209703	-0.07990055704709099	-0.4324768744452149	0.7210296403149025	4.931215496858015e-07	5.849833951983871e-07	-2.91445306731091e-06	-3.171338141386165e-07	5.908383804590422e-07	4.440853109399502e-07	4.62647980663003e-07
1.53	-0.326235517801846	-0.02719534047582773	0.7793998143811989	1.113839733201466	-0.3053680435415888	-0.009581114963031007	-0.3218124038507346	0.7547597021634225	0.7547597021634178	-0.1738716230235733	0.1657527069105255	0.1449411994718581	-0.02308544500108249	0.4484932586903232	0.1737647512222679	0.490041789559458	-2.134773318166311	0.006535622817887719	-0.699794642444212	0.6159473680691281	-2.119147456019028	-2.119147456019086	0.003128225085241854	-0.04710808452988683	-0.5552450281735694	-0.0833625264585458	-0.1761370193236464	0.03772420362128161	-0.02528627258088734	-0.245664255572328	0.107026154113142	0.02094559179593443	0.1772577241675823	-3.6480608920787	-10.75778756640321	3.939665599267653	-2.729067773680542	-594.2839638800276	-43.27358269575766	-24.23041915825502	0.4148887385352727	0.5067184269206115	-0.5954523219570894	-0.80760410864319	0.6637761517851368	-0.1228320870975427	1.42954977984891	-0.8127093662080414	-0.8127093662098741	-0.07904133741080811	-0.09253674226847791	-0.3939612993059825	0.6690396594967906	5.64560562692456e-07	6.371870189904429e-07	-3.261947569844201e-06	-3.604760544513172e-07	6.685166618634696e-07	5.527454869169488e-07	5.163576436994917e-07
1.54	-0.3217307612380151	-0.02543264675773116	0.784269469708893	1.092455286581086	-0.3052684639614987	-0.01658561044056055	-0.3155821052469973	0.73353121529953	0.7335312152995426	-0.1738418381588939	0.1652774230620199	0.139370420027653	-0.02388443542686201	0.4523925126600762	0.1787492786287066	0.4837908036793089	-2.141809266000683	0.01339561401712103	-0.7010157539605906	0.6300200430448634	-2.126238982880961	-2.126238982881032	0.002830418536446376	-0.04794363170999329	-0.5588102084553085	-0.07642222200220712	-0.1698929801848235	0.03708889355193996	-0.02507386460535107	-0.2429609052548943	0.1086267877062802	0.02045027352584946	0.1720236789246249	-2.936435369491769	-10.79198427941103	4.087570891072227	-2.932948284212274	-590.2795797640549	-43.5718995788946	-25.48190873411249	0.3595560132347336	0.4894889703883948	-0.6551334709170611	-0.5877385770009934	0.7249553907931562	-0.148266662652986	1.390395823062822	-0.5951014451879332	-0.5951014451879356	0.06835011988279764	-0.06845264700540268	-0.3118005636168372	0.7394155423893986	5.842573056241965e-07	7.808556805083655e-07	-3.308965718147805e-06	-3.532491205215652e-07	7.009824756556001e-07	6.602618005730277e-07	5.343325807200363e-07
1.55	-0.3171889450665161	-0.02362088778276412	0.7890737992048253	1.071009527353972	-0.3050998326126177	-0.02360023298769829	-0.3092139098031191	0.7122410886898868	0.7122410886898985	-0.1738146345874246	0.1647945018120166	0.1337670288007636	-0.02461364728483488	0.4559056835685339	0.1835752290045511	0.476986578135424	-2.147044519294863	0.0203313839699751	-0.7017803630343056	0.643523384966789	-2.131482245821019	-2.131482245821071	0.002574006648646668	-0.04865980140155857	-0.5617643163473207	-0.06942239058618996	-0.1637232988746644	0.03621491535954879	-0.02479628190711498	-0.2404506674297225	0.1103199994569102	0.01979977061444476	0.1668555730574288	-2.219535907929048	-10.75543867638218	4.219319482858932	-3.098916904880697	-586.5785803645007	-43.79957618707916	-26.72406208200249	0.3374890862917961	0.4750046924398493	-0.7062106115131173	-0.446646951701309	0.6782998310891468	-0.02082532758553575	1.315954262163388	-0.4434243838723887	-0.4434243838696116	-0.07804132871469874	-0.07551256587009275	-0.2716535519754339	0.6800781616595877	5.443379547739741e-07	1.029907972449564e-06	-3.009782849621573e-06	-2.877577032255122e-07	6.813556637205217e-07	7.664601859028295e-07	5.111348986352561e-07
1.56	-0.3126139388946044	-0.02176169797978715	0.7938074577422413	1.049520369944701	-0.3048617611574967	-0.03061855508514415	-0.3027135507629406	0.6909076323177513	0.6909076323177625	-0.1737910760319538	0.1643039561779703	0.1281372089649577	-0.02527289858455724	0.4590305127426118	0.1882354442306905	0.4696566119759825	-2.150488902432035	0.02728363526513387	-0.701755664022212	0.6564527623049529	-2.134904935379384	-2.134904935379418	0.002101415336713184	-0.04946850851864397	-0.5640959302386137	-0.06243011035210421	-0.1575536175645055	0.03534093716715751	-0.02451869920887718	-0.2379404296045511	0.1120132112075403	0.01914926770303995	0.1616874671902327	-1.503800627263249	-10.72272358661608	4.356288871283845	-3.302375574109315	-582.9257943831356	-44.12322521816515	-27.95582539816356	0.2818876663587555	0.4563419404473534	-0.7602815940283746	-0.2295645455993371	0.7282516592540957	0.009594954508717743	1.275602906310493	-0.230986768849519	-0.2309867688495193	0.02511423505604288	-0.08696013210942868	-0.1873017634729987	0.7379053060031144	4.490293116361153e-07	1.32580086335948e-06	-2.460018014536381e-06	-1.755831149086674e-07	6.019744627941195e-07	8.337243398561726e-07	4.555151240686298e-07
1.57	-0.3080097499015094	-0.01985679626806004	0.7984652276848373	1.028006121577235	-0.3045536701589512	-0.03763511687395542	-0.296086698466192	0.6695497478252553	0.6695497478252527	-0.1737709796658454	0.1638064533757655	0.1224874920177066	-0.02586171380589563	0.4617399421051138	0.1927105357488048	0.461817458390975	-2.152054869035748	0.03433199219453976	-0.7014368383993614	0.6688133381849962	-2.136359352483235	-2.136359352483291	0.001892782865950532	-0.05004134041755363	-0.5657410478032144	-0.05533774062261065	-0.1514587170485181	0.03436237562746692	-0.024237729052946	-0.2354234767523687	0.11358284788629	0.01836178925515147	0.1565600591265251	-0.8466716648111342	-10.61565762765597	4.47614814338715	-3.404440803087262	-579.4843529559015	-44.33628034736662	-29.16248622216798	0.2553902628970874	0.4379570283094537	-0.8076481253941483	-0.07420017088939483	0.6927084264235188	0.06133146256399823	1.200631099888662	-0.05583838769510537	-0.05583838769841012	-0.04737340460557252	-0.04358702490811903	-0.1371292840080574	0.694013613668013	2.844840531387115e-07	1.680244502980294e-06	-1.597025721252493e-06	-5.054562815833535e-09	4.479002756285633e-07	8.523207045889429e-07	3.59367733899696e-07
1.58	-0.303380482676449	-0.01790817078698859	0.8030422229146517	1.006485396053106	-0.3041751794477836	-0.04464482938726001	-0.2893393711764355	0.6481866853204125	0.6481866853203955	-0.1737536739077372	0.1633029937933465	0.1168245213885986	-0.02637978316848998	0.4640461591356623	0.196980198099559	0.4535016694196786	-2.151784333764743	0.04136357778953301	-0.7003858089208802	0.6805477609065361	-2.135940537848775	-2.135940537848853	0.001543293736661751	-0.05065986456151868	-0.5667466666099927	-0.04828093860329554	-0.1453638165325307	0.0333838140877764	-0.02395675889701501	-0.2329065239001863	0.1151524845650398	0.01757431080726306	0.1514326510628175	-0.1977905101768895	-10.50945263189494	4.598778291111287	-3.503403471711957	-576.1817111576572	-44.62014351894862	-30.33426623114473	0.2012451999680687	0.4152561069753438	-0.8556086712861624	0.1377358293443747	0.7248973923715641	0.1560357256348464	1.150372274609825	0.1436595788127004	0.1436595788127024	-0.003057096649182553	-0.09609858112051008	-0.05940201190847912	0.730791763967426	1.798735953098555e-07	1.917504459310103e-06	-1.063136501967561e-06	1.034024920383721e-07	3.526446390627662e-07	8.734071990353955e-07	3.005810219185479e-07
1.59	-0.2987302258922624	-0.01591788933979874	0.8075337706165161	0.9849765955971045	-0.3037264330833215	-0.05164095524176299	-0.2824778263992422	0.626837332529667	0.6268373325296615	-0.1737400788898193	0.1627934992838413	0.111154818302656	-0.0268273813136894	0.4659323666010504	0.2010399447098667	0.4447379230953322	-2.14966506723026	0.04838218035659989	-0.6987431801675318	0.6916557192016731	-2.13360673947859	-2.133606739478635	0.001178491034739119	-0.05123089348221969	-0.5670771628151025	-0.04124083318473573	-0.1392612400324561	0.03220442908348963	-0.0237296839871076	-0.2305933111625809	0.117053644593749	0.01665251393845982	0.1463228217878671	0.5395160390704921	-10.35802871479262	4.711494958673833	-3.676231017856658	-573.1262879213293	-44.86088316064761	-31.4646827910561	0.1714006792771454	0.3959403541951659	-0.8971841880405445	0.2956472432464834	0.6897312795572887	0.1831187680610334	1.075186307399302	0.3266745531841628	0.3266745531890212	-0.05250401625443687	-0.03615890757251725	-0.002328525126741603	0.690085270706946	1.566032241025954e-07	1.995729416887845e-06	-9.758871688240437e-07	1.276196577830154e-07	3.372141783109238e-07	8.978731552361312e-07	2.924980874779632e-07
